<?xml version="1.0" standalone="no"?>
<!DOCTYPE svg PUBLIC "-//W3C//DTD SVG 20010904//EN"
 "http://www.w3.org/TR/2001/REC-SVG-20010904/DTD/svg10.dtd">
<svg version="1.0" xmlns="http://www.w3.org/2000/svg"
 width="143.000000pt" height="143.000000pt" viewBox="0 0 143.000000 143.000000"
 preserveAspectRatio="xMidYMid meet">
<metadata>
Created by potrace 1.14, written by Peter Selinger 2001-2017
</metadata>
<g transform="translate(0.000000,143.000000) scale(0.100000,-0.100000)"
fill="#000000" stroke="none">
<path d="M1243 1338 c-18 -23 -23 -65 -10 -77 10 -8 18 -1 35 33 11 24 18 47
15 50 -10 10 -30 7 -40 -6z"/>
<path d="M947 1221 c-9 -23 -19 -31 -47 -36 -46 -8 -74 -24 -45 -26 11 -1 30
0 43 1 27 2 27 -1 0 -80 -22 -67 -57 -134 -65 -126 -3 2 4 30 13 61 l18 57
-27 24 c-23 20 -26 27 -17 43 8 16 6 22 -10 31 -16 9 -22 6 -35 -14 -9 -14
-15 -33 -14 -43 2 -19 0 -25 -36 -109 -25 -57 -105 -147 -112 -126 -9 24 7 81
21 76 22 -8 65 35 72 73 6 30 3 39 -16 53 -37 28 -63 9 -100 -74 -33 -77 -69
-131 -70 -106 0 23 51 173 64 187 6 7 34 15 61 19 57 7 60 8 50 24 -4 7 -23 9
-52 4 -43 -6 -45 -5 -38 15 5 18 2 21 -20 21 -21 0 -29 -7 -38 -30 -6 -16 -16
-30 -22 -31 -26 -2 -59 -10 -74 -19 -19 -11 -7 -14 43 -10 24 1 28 -1 23 -17
-3 -10 -12 -40 -20 -68 -14 -49 -53 -135 -62 -135 -7 0 4 43 26 103 17 44 19
61 10 70 -17 17 -41 -2 -78 -64 -38 -62 -41 -60 -13 11 17 44 18 51 5 56 -30
12 -42 -6 -68 -97 -28 -99 -45 -121 -148 -194 -42 -30 -93 -38 -94 -15 -3 43
80 135 111 123 20 -7 34 13 34 49 0 25 -2 26 -29 17 -38 -13 -71 3 -71 35 0
32 56 91 110 115 44 20 45 20 48 1 2 -10 -6 -37 -18 -60 -12 -23 -19 -44 -17
-46 6 -6 69 67 86 100 17 31 7 73 -19 81 -48 15 -164 -44 -210 -107 -35 -48
-39 -94 -10 -130 l19 -25 -40 -43 c-69 -74 -78 -129 -28 -159 61 -37 119 -14
203 81 44 48 47 50 61 32 17 -24 21 -20 60 66 40 88 47 96 28 30 -12 -40 -12
-54 -3 -65 17 -20 47 -19 60 3 10 16 10 16 20 0 17 -28 37 -21 63 23 23 38 25
39 32 20 4 -12 18 -27 33 -32 21 -8 31 -6 54 11 22 16 32 18 48 10 17 -9 20
-8 21 12 0 37 63 201 78 206 15 5 14 -2 -15 -111 -19 -68 -19 -69 0 -83 28
-20 34 -18 55 17 19 30 19 31 30 10 16 -29 38 -26 60 9 l18 30 11 -25 c15 -33
37 -32 59 3 9 15 19 29 21 32 2 3 8 -3 13 -13 13 -22 45 -22 59 1 10 16 10 16
20 0 16 -26 38 -22 58 12 18 29 19 29 35 10 20 -24 37 -26 37 -5 0 8 13 43 30
78 32 66 37 68 19 6 -9 -30 -9 -42 1 -54 26 -31 50 -18 80 48 17 34 30 71 29
82 0 18 -1 18 -9 -3 -5 -12 -21 -39 -35 -60 -26 -37 -26 -37 -19 -7 4 17 15
52 26 79 21 54 18 76 -10 76 -12 0 -31 -22 -55 -62 -41 -69 -48 -66 -17 7 17
39 18 47 5 51 -27 11 -42 -4 -55 -53 -14 -54 -72 -171 -77 -156 -2 5 8 43 22
84 41 116 40 109 12 109 -23 0 -28 -7 -49 -72 -12 -40 -31 -86 -41 -103 l-18
-30 4 35 c5 38 11 57 34 109 13 28 13 35 2 42 -19 12 -26 11 -41 -5 -9 -9 -20
-11 -35 -5 -30 11 -57 -18 -84 -91 -11 -30 -29 -66 -40 -80 l-19 -25 4 25 c8
50 48 169 60 179 6 5 34 13 61 16 57 8 60 9 50 25 -4 7 -23 9 -52 4 -40 -6
-44 -5 -41 12 2 13 -4 20 -20 22 -18 3 -26 -3 -35 -27z m127 -113 c-12 -38
-67 -149 -71 -144 -7 7 18 89 40 129 23 41 42 50 31 15z m-403 -80 c-5 -13
-16 -30 -25 -37 -15 -13 -16 -11 -6 15 12 31 31 57 37 51 2 -2 -1 -15 -6 -29z"/>
<path d="M848 793 c-9 -10 -19 -29 -23 -43 -12 -39 -45 -97 -45 -79 0 9 7 33
16 54 15 37 13 65 -5 65 -6 0 -22 -20 -37 -45 -29 -50 -43 -61 -20 -16 13 24
13 31 2 40 -14 12 -24 3 -64 -55 -7 -11 -5 -4 4 15 10 22 12 37 6 43 -17 17
-31 0 -47 -57 -23 -78 -26 -98 -15 -115 12 -19 25 -6 45 45 14 38 14 38 11 8
-3 -22 1 -33 11 -38 19 -7 18 -9 43 45 l20 45 -5 -36 c-4 -28 -2 -38 11 -43 9
-3 23 -1 31 5 10 9 17 9 25 1 29 -29 80 10 108 83 10 25 6 23 -30 -18 -44 -50
-60 -58 -55 -29 2 9 4 23 4 30 1 7 5 10 11 7 14 -8 60 40 60 63 0 20 -18 42
-35 42 -7 0 -19 -8 -27 -17z m27 -43 c-9 -16 -17 -30 -20 -30 -2 0 1 14 6 30
6 17 15 30 20 30 5 0 3 -13 -6 -30z"/>
<path d="M1171 787 c-91 -9 -166 -19 -167 -20 -1 -1 -4 -11 -6 -22 -2 -17 3
-20 32 -21 19 0 59 3 90 8 30 4 89 10 130 13 88 7 140 21 140 40 0 21 -46 22
-219 2z"/>
<path d="M420 650 c-157 -43 -242 -69 -249 -76 -3 -4 3 -4 14 -1 11 4 88 20
170 37 205 41 195 38 189 55 -4 8 -9 15 -13 14 -3 -1 -53 -14 -111 -29z"/>
<path d="M533 548 c-11 -13 -37 -49 -58 -81 -21 -31 -40 -55 -42 -53 -3 2 0
21 6 41 9 33 7 40 -14 61 -13 13 -30 24 -38 24 -22 0 -74 -83 -155 -245 -79
-157 -83 -169 -66 -194 9 -12 19 -21 23 -21 4 0 20 32 35 72 57 144 160 347
172 336 1 -2 -17 -69 -41 -148 -25 -80 -45 -153 -45 -163 0 -10 10 -21 23 -26
19 -7 23 -5 28 18 12 54 118 252 172 321 24 31 24 31 -37 -145 -57 -163 -60
-182 -36 -195 29 -15 40 -12 40 13 0 24 43 162 84 270 20 54 23 73 15 95 -9
24 -25 41 -40 42 -3 0 -15 -10 -26 -22z"/>
<path d="M822 533 c-6 -16 -12 -41 -14 -58 -2 -19 -12 -34 -28 -44 -24 -13
-28 -12 -57 18 -28 28 -35 30 -56 20 -57 -26 -127 -226 -94 -268 15 -18 54
-32 71 -25 8 3 25 22 38 42 22 33 33 63 54 142 6 24 21 40 36 40 7 0 3 -18
-12 -55 -5 -11 -16 -42 -26 -68 -17 -47 -17 -49 3 -69 l21 -20 7 33 c12 60 67
214 81 228 26 28 25 -11 -1 -88 -31 -92 -31 -115 -2 -136 21 -15 23 -14 42 8
11 13 25 33 31 43 11 18 12 18 30 -3 31 -36 69 -37 99 -1 36 42 72 108 80 143
7 29 6 29 -21 -10 -45 -65 -100 -119 -113 -111 -7 4 -10 15 -7 24 2 10 7 29
10 44 4 18 11 25 20 22 41 -16 109 86 84 125 -7 11 -23 25 -37 31 -23 11 -28
9 -53 -21 -16 -18 -35 -54 -44 -79 -20 -56 -52 -120 -71 -140 -11 -12 -10 -5
2 35 31 99 31 116 0 141 -26 20 -27 26 -17 48 9 20 8 25 -4 30 -29 11 -42 6
-52 -21z m237 -55 c-5 -18 -18 -41 -30 -53 l-21 -20 16 39 c15 36 34 66 42 66
1 0 -2 -14 -7 -32z m-386 -84 c-3 -9 0 -20 8 -24 11 -7 10 -18 -4 -62 -19 -57
-43 -96 -54 -85 -12 13 35 187 51 187 3 0 3 -7 -1 -16z"/>
</g>
</svg>
